<?xml version="1.0" encoding="UTF-8" standalone="no"?><!DOCTYPE svg PUBLIC "-//W3C//DTD SVG 1.1//EN" "http://www.w3.org/Graphics/SVG/1.1/DTD/svg11.dtd"><svg width="100%" height="100%" viewBox="0 0 576 512" version="1.1" xmlns="http://www.w3.org/2000/svg" xmlns:xlink="http://www.w3.org/1999/xlink" xml:space="preserve" xmlns:serif="http://www.serif.com/" style="fill-rule:evenodd;clip-rule:evenodd;stroke-linejoin:round;stroke-miterlimit:2;"><path d="M575.8,255.5c-0,18 -15,32.1 -32,32.1l-32,0l0.7,160.2c-0,2.7 -0.2,5.4 -0.5,8.1l-0,16.1c-0,22.1 -17.9,40 -40,40l-16,-0c-1.1,-0 -2.2,-0 -3.3,-0.1c-1.4,0.1 -2.8,0.1 -4.2,0.1l-56.5,-0c-22.1,-0 -40,-17.9 -40,-40l-0,-88c-0,-17.7 -14.3,-32 -32,-32l-64,-0c-17.7,-0 -32,14.3 -32,32l-0,88c-0,22.1 -17.9,40 -40,40l-55.9,-0c-1.5,-0 -3,-0.1 -4.5,-0.2c-1.2,0.1 -2.4,0.2 -3.6,0.2l-16,-0c-22.1,-0 -40,-17.9 -40,-40l-0,-112c-0,-0.9 -0,-1.9 0.1,-2.8l-0,-69.6l-32.1,-0c-18,-0 -32,-14 -32,-32.1c-0,-9 3,-17 10,-24l256.4,-223.5c7,-7 15,-8 22,-8c7,-0 15,2 21,7l255.4,224.5c8,7 12,15 11,24Z" style="fill:#fff;fill-rule:nonzero;"/></svg>