<?xml version="1.0" encoding="UTF-8" standalone="no"?><!DOCTYPE svg PUBLIC "-//W3C//DTD SVG 1.1//EN" "http://www.w3.org/Graphics/SVG/1.1/DTD/svg11.dtd"><svg width="100%" height="100%" viewBox="0 0 512 512" version="1.1" xmlns="http://www.w3.org/2000/svg" xmlns:xlink="http://www.w3.org/1999/xlink" xml:space="preserve" xmlns:serif="http://www.serif.com/" style="fill-rule:evenodd;clip-rule:evenodd;stroke-linejoin:round;stroke-miterlimit:2;"><path d="M192,104.8c0,-9.2 -5.8,-17.3 -13.2,-22.8c-11.6,-8.7 -18.8,-20.7 -18.8,-34c0,-26.5 28.7,-48 64,-48c35.3,0 64,21.5 64,48c0,13.3 -7.2,25.3 -18.8,34c-7.4,5.5 -13.2,13.6 -13.2,22.8c0,12.8 10.4,23.2 23.2,23.2l56.8,0c26.5,0 48,21.5 48,48l0,56.8c0,12.8 10.4,23.2 23.2,23.2c9.2,0 17.3,-5.8 22.8,-13.2c8.7,-11.6 20.7,-18.8 34,-18.8c26.5,0 48,28.7 48,64c0,35.3 -21.5,64 -48,64c-13.3,0 -25.3,-7.2 -34,-18.8c-5.5,-7.4 -13.6,-13.2 -22.8,-13.2c-12.8,0 -23.2,10.4 -23.2,23.2l0,120.8c0,26.5 -21.5,48 -48,48l-56.8,0c-12.8,0 -23.2,-10.4 -23.2,-23.2c0,-9.2 5.8,-17.3 13.2,-22.8c11.6,-8.7 18.8,-20.7 18.8,-34c0,-26.5 -28.7,-48 -64,-48c-35.3,0 -64,21.5 -64,48c0,13.3 7.2,25.3 18.8,34c7.4,5.5 13.2,13.6 13.2,22.8c0,12.8 -10.4,23.2 -23.2,23.2l-120.8,0c-26.5,0 -48,-21.5 -48,-48l-0,-120.8c-0,-12.8 10.4,-23.2 23.2,-23.2c9.2,0 17.3,5.8 22.8,13.2c8.7,11.6 20.7,18.8 34,18.8c26.5,0 48,-28.7 48,-64c0,-35.3 -21.5,-64 -48,-64c-13.3,0 -25.3,7.2 -34,18.8c-5.5,7.4 -13.6,13.2 -22.8,13.2c-12.8,0 -23.2,-10.4 -23.2,-23.2l0,-56.8c0,-26.5 21.5,-48 48,-48l120.8,0c12.8,0 23.2,-10.4 23.2,-23.2Z" style="fill:#fff;fill-rule:nonzero;"/></svg>