<?xml version="1.0" encoding="UTF-8" standalone="no"?><!DOCTYPE svg PUBLIC "-//W3C//DTD SVG 1.1//EN" "http://www.w3.org/Graphics/SVG/1.1/DTD/svg11.dtd"><svg width="100%" height="100%" viewBox="0 0 512 512" version="1.1" xmlns="http://www.w3.org/2000/svg" xmlns:xlink="http://www.w3.org/1999/xlink" xml:space="preserve" xmlns:serif="http://www.serif.com/" style="fill-rule:evenodd;clip-rule:evenodd;stroke-linejoin:round;stroke-miterlimit:2;"><path d="M416,208c0,45.9 -14.9,88.3 -40,122.7l126.6,126.7c12.5,12.5 12.5,32.8 0,45.3c-12.5,12.5 -32.8,12.5 -45.3,0l-126.6,-126.7c-34.4,25.2 -76.8,40 -122.7,40c-114.9,0 -208,-93.1 -208,-208c0,-114.9 93.1,-208 208,-208c114.9,0 208,93.1 208,208Zm-208,144c79.5,0 144,-64.5 144,-144c0,-79.5 -64.5,-144 -144,-144c-79.5,0 -144,64.5 -144,144c0,79.5 64.5,144 144,144Z" style="fill:#fff;fill-rule:nonzero;"/></svg>