<?xml version="1.0" encoding="UTF-8" standalone="no"?><!DOCTYPE svg PUBLIC "-//W3C//DTD SVG 1.1//EN" "http://www.w3.org/Graphics/SVG/1.1/DTD/svg11.dtd"><svg width="100%" height="100%" viewBox="0 0 100 100" version="1.1" xmlns="http://www.w3.org/2000/svg" xmlns:xlink="http://www.w3.org/1999/xlink" xml:space="preserve" xmlns:serif="http://www.serif.com/" style="fill-rule:evenodd;clip-rule:evenodd;stroke-linejoin:round;stroke-miterlimit:2;"><path d="M98.201,41.747l-12.844,-2.1c-0.752,-2.577 -1.78,-5.055 -3.067,-7.4l7.498,-10.686c0.607,-0.863 0.502,-2.039 -0.243,-2.786l-8.452,-8.448c-0.754,-0.752 -1.941,-0.85 -2.806,-0.226l-10.525,7.565c-2.367,-1.308 -4.867,-2.347 -7.459,-3.101l-2.241,-12.792c-0.183,-1.039 -1.084,-1.8 -2.141,-1.8l-11.953,0c-1.065,0 -1.973,0.772 -2.145,1.824l-2.078,12.722c-2.608,0.75 -5.111,1.778 -7.469,3.069l-10.498,-7.498c-0.867,-0.619 -2.047,-0.519 -2.801,0.23l-8.448,8.448c-0.745,0.746 -0.85,1.919 -0.243,2.782l7.387,10.569c-1.315,2.38 -2.362,4.899 -3.125,7.52l-12.673,2.11c-1.047,0.174 -1.817,1.082 -1.817,2.143l0,11.953c0,1.054 0.756,1.956 1.793,2.141l12.673,2.247c0.758,2.615 1.806,5.133 3.125,7.52l-7.478,10.46c-0.618,0.863 -0.52,2.047 0.23,2.801l8.45,8.457c0.745,0.745 1.921,0.85 2.784,0.243l10.584,-7.413c2.375,1.306 4.886,2.343 7.487,3.095l2.121,12.738c0.172,1.045 1.078,1.812 2.141,1.812l11.953,0c1.054,0 1.956,-0.756 2.139,-1.793l2.271,-12.801c2.606,-0.767 5.103,-1.81 7.454,-3.118l10.661,7.478c0.865,0.611 2.038,0.504 2.786,-0.241l8.45,-8.457c0.752,-0.754 0.849,-1.943 0.226,-2.808l-7.603,-10.555c1.289,-2.348 2.313,-4.83 3.058,-7.407l12.862,-2.258c1.041,-0.183 1.797,-1.087 1.797,-2.141l0,-11.953c0.003,-1.065 -0.769,-1.974 -1.821,-2.145Zm-48.161,23.426c-8.402,-0 -15.213,-6.811 -15.213,-15.213c-0,-8.402 6.811,-15.214 15.213,-15.214c8.402,0 15.214,6.812 15.214,15.214c-0,8.402 -6.812,15.213 -15.214,15.213Z" style="fill:#fff;fill-rule:nonzero;"/></svg>