<?xml version="1.0" encoding="UTF-8" standalone="no"?><!DOCTYPE svg PUBLIC "-//W3C//DTD SVG 1.1//EN" "http://www.w3.org/Graphics/SVG/1.1/DTD/svg11.dtd"><svg width="100%" height="100%" viewBox="0 0 24 24" version="1.1" xmlns="http://www.w3.org/2000/svg" xmlns:xlink="http://www.w3.org/1999/xlink" xml:space="preserve" xmlns:serif="http://www.serif.com/" style="fill-rule:evenodd;clip-rule:evenodd;stroke-linejoin:round;stroke-miterlimit:2;"><g><path d="M2.182,24c-0.6,0 -1.114,-0.214 -1.541,-0.64c-0.427,-0.428 -0.641,-0.942 -0.641,-1.542l0,-15.273c0,-0.6 0.214,-1.113 0.641,-1.541c0.427,-0.427 0.941,-0.64 1.541,-0.64l15.273,0c0.6,0 1.113,0.213 1.541,0.64c0.427,0.428 0.64,0.941 0.64,1.541l0,15.273c0,0.6 -0.213,1.114 -0.64,1.542c-0.428,0.426 -0.941,0.64 -1.541,0.64l-15.273,0Zm0,-2.182l15.273,0l0,-15.273l-15.273,0l0,15.273Zm0,0l0,-15.273l0,15.273Z" style="fill:#fff;fill-rule:nonzero;"/><path d="M21.818,0c0.6,0 1.114,0.214 1.541,0.641c0.427,0.427 0.641,0.941 0.641,1.541l-0,14.187c0,0.288 -0.114,0.564 -0.318,0.768c-0.204,0.204 -0.48,0.318 -0.768,0.318c-0,-0 -0.001,-0 -0.001,-0c-0.605,-0 -1.095,-0.49 -1.095,-1.095c0,-3.498 0,-14.178 0,-14.178l-14.184,-0c-0.601,-0 -1.089,-0.488 -1.089,-1.089c0,-0.004 0,-0.009 0,-0.013c-0,-0.597 0.483,-1.08 1.08,-1.08c3.482,-0 14.193,-0 14.193,-0Z" style="fill:#fff;fill-rule:nonzero;"/></g></svg>