<?xml version="1.0" encoding="UTF-8" standalone="no"?><!DOCTYPE svg PUBLIC "-//W3C//DTD SVG 1.1//EN" "http://www.w3.org/Graphics/SVG/1.1/DTD/svg11.dtd"><svg width="100%" height="100%" viewBox="0 0 24 24" version="1.1" xmlns="http://www.w3.org/2000/svg" xmlns:xlink="http://www.w3.org/1999/xlink" xml:space="preserve" xmlns:serif="http://www.serif.com/" style="fill-rule:evenodd;clip-rule:evenodd;stroke-linejoin:round;stroke-miterlimit:2;"><g><path d="M2.182,24c-0.6,0 -1.114,-0.214 -1.541,-0.64c-0.427,-0.428 -0.641,-0.942 -0.641,-1.542l0,-15.273c0,-0.6 0.214,-1.113 0.641,-1.541c0.427,-0.427 0.941,-0.64 1.541,-0.64l15.273,-0c0.6,-0 1.113,0.213 1.541,0.64c0.427,0.428 0.64,0.941 0.64,1.541l0,15.273c0,0.6 -0.213,1.114 -0.64,1.542c-0.428,0.426 -0.941,0.64 -1.541,0.64l-15.273,0Zm-0,-2.182l15.273,0l-0,-15.273l-15.273,0l-0,15.273Zm-0,0l-0,-15.273l-0,15.273Z" style="fill:#fff;fill-rule:nonzero;"/><path d="M21.818,0c0.6,0 1.114,0.214 1.541,0.641c0.427,0.427 0.641,0.941 0.641,1.541l0,15.273l-2.182,-0l0,-15.273l-15.273,-0l0,-2.182l15.273,0Z" style="fill:#fff;fill-rule:nonzero;"/></g></svg>