<?xml version="1.0" encoding="UTF-8" standalone="no"?><!DOCTYPE svg PUBLIC "-//W3C//DTD SVG 1.1//EN" "http://www.w3.org/Graphics/SVG/1.1/DTD/svg11.dtd"><svg width="100%" height="100%" viewBox="0 0 24 24" version="1.1" xmlns="http://www.w3.org/2000/svg" xmlns:xlink="http://www.w3.org/1999/xlink" xml:space="preserve" xmlns:serif="http://www.serif.com/" style="fill-rule:evenodd;clip-rule:evenodd;stroke-linejoin:round;stroke-miterlimit:2;"><path d="M2.667,24c-0.734,0 -1.361,-0.261 -1.884,-0.783c-0.522,-0.523 -0.783,-1.15 -0.783,-1.884l-0,-18.666c-0,-0.734 0.261,-1.361 0.783,-1.884c0.523,-0.522 1.15,-0.783 1.884,-0.783l18.666,0c0.734,0 1.361,0.261 1.884,0.783c0.522,0.523 0.783,1.15 0.783,1.884l-0,18.666c-0,0.734 -0.261,1.361 -0.783,1.884c-0.523,0.522 -1.15,0.783 -1.884,0.783l-18.666,0Zm-0,-2.667l18.666,0l0,-18.666l-18.666,-0l-0,18.666Zm-0,0l-0,-18.666l-0,18.666Z" style="fill:#fff;fill-rule:nonzero;"/></svg>