<?xml version="1.0" encoding="UTF-8" standalone="no"?><!DOCTYPE svg PUBLIC "-//W3C//DTD SVG 1.1//EN" "http://www.w3.org/Graphics/SVG/1.1/DTD/svg11.dtd"><svg width="100%" height="100%" viewBox="0 0 24 24" version="1.1" xmlns="http://www.w3.org/2000/svg" xmlns:xlink="http://www.w3.org/1999/xlink" xml:space="preserve" xmlns:serif="http://www.serif.com/" style="fill-rule:evenodd;clip-rule:evenodd;stroke-linejoin:round;stroke-miterlimit:2;"><path d="M22,10c0.53,-0 1.039,0.211 1.414,0.586c0.375,0.375 0.586,0.884 0.586,1.414c-0,0.53 -0.211,1.039 -0.586,1.414c-0.375,0.375 -0.884,0.586 -1.414,0.586c-4.524,0 -15.498,0 -20.011,0c-0.528,0 -1.034,-0.21 -1.407,-0.582c-0.372,-0.373 -0.582,-0.879 -0.582,-1.407c-0,-0.002 -0,-0.003 -0,-0.005c-0,-0.532 0.211,-1.042 0.587,-1.419c0.377,-0.376 0.887,-0.587 1.419,-0.587c4.523,0 15.476,0 19.994,0Z" style="fill:#fff;"/></svg>