<?xml version="1.0" encoding="UTF-8" standalone="no"?><!DOCTYPE svg PUBLIC "-//W3C//DTD SVG 1.1//EN" "http://www.w3.org/Graphics/SVG/1.1/DTD/svg11.dtd"><svg width="100%" height="100%" viewBox="0 0 24 24" version="1.1" xmlns="http://www.w3.org/2000/svg" xmlns:xlink="http://www.w3.org/1999/xlink" xml:space="preserve" xmlns:serif="http://www.serif.com/" style="fill-rule:evenodd;clip-rule:evenodd;stroke-linejoin:round;stroke-miterlimit:2;"><path d="M3.603,22.8c-0.662,0.663 -1.737,0.663 -2.4,-0c-0.002,-0.003 -0.005,-0.006 -0.008,-0.008c-0.658,-0.659 -0.658,-1.725 0,-2.384c2.571,-2.57 8.408,-8.408 8.408,-8.408c0,-0 -5.837,-5.838 -8.408,-8.408c-0.658,-0.659 -0.658,-1.725 0,-2.384c0.003,-0.002 0.006,-0.005 0.008,-0.008c0.663,-0.663 1.738,-0.663 2.4,-0c2.576,2.575 8.4,8.4 8.4,8.4c0,-0 5.833,-5.832 8.405,-8.405c0.317,-0.317 0.747,-0.495 1.196,-0.495c0.448,0 0.878,0.178 1.195,0.495c0,0.001 0.001,0.001 0.001,0.002c0.665,0.664 0.665,1.742 0,2.406c-2.577,2.578 -8.397,8.397 -8.397,8.397c0,-0 5.82,5.819 8.397,8.397c0.665,0.664 0.665,1.742 0,2.406c-0,0.001 -0.001,0.001 -0.001,0.002c-0.317,0.317 -0.747,0.495 -1.195,0.495c-0.449,-0 -0.879,-0.178 -1.196,-0.495c-2.572,-2.573 -8.405,-8.405 -8.405,-8.405c0,-0 -5.824,5.825 -8.4,8.4Z" style="fill:#fff;fill-rule:nonzero;"/></svg>