<?xml version="1.0" encoding="UTF-8" standalone="no"?><!DOCTYPE svg PUBLIC "-//W3C//DTD SVG 1.1//EN" "http://www.w3.org/Graphics/SVG/1.1/DTD/svg11.dtd"><svg width="100%" height="100%" viewBox="0 0 320 512" version="1.1" xmlns="http://www.w3.org/2000/svg" xmlns:xlink="http://www.w3.org/1999/xlink" xml:space="preserve" xmlns:serif="http://www.serif.com/" style="fill-rule:evenodd;clip-rule:evenodd;stroke-linejoin:round;stroke-miterlimit:2;"><path d="M52.5,440.6c-9.5,7.9 -22.8,9.7 -34.1,4.4c-11.3,-5.3 -18.4,-16.6 -18.4,-29l0,-320c0,-12.4 7.2,-23.7 18.4,-29c11.2,-5.3 24.5,-3.6 34.1,4.4l192,160l11.5,9.6l0,-145c0,-17.7 14.3,-32 32,-32c17.7,0 32,14.3 32,32l0,320c0,17.7 -14.3,32 -32,32c-17.7,0 -32,-14.3 -32,-32l0,-145l-11.5,9.6l-192,160Z" style="fill:#fff;fill-rule:nonzero;"/></svg>