<?xml version="1.0" encoding="utf-8"?>
<!-- Generator: Adobe Illustrator 28.3.0, SVG Export Plug-In . SVG Version: 6.00 Build 0)  -->
<svg version="1.1" id="Capa_1" xmlns="http://www.w3.org/2000/svg" xmlns:xlink="http://www.w3.org/1999/xlink" x="0px" y="0px"
	 viewBox="0 0 512 512" style="enable-background:new 0 0 512 512;" xml:space="preserve">
<style type="text/css">
	.st0{fill:#FFFFFF;}
</style>
<g id="_01_align_center">
	<path class="st0" d="M284.5,17.8c-16.2-14.6-40.9-14.6-57.1,0L0,222.5v221.9c0,37.7,30.6,68.3,68.3,68.3c0,0,0,0,0,0h375.5
		c37.7,0,68.3-30.6,68.3-68.3c0,0,0,0,0,0V222.5L284.5,17.8z M320,469.9H192V362.7c0-35.3,28.7-64,64-64s64,28.7,64,64V469.9z
		 M469.3,444.3c0,14.1-11.5,25.6-25.6,25.6h0h-81.1V362.7c0-58.9-47.8-106.7-106.7-106.7s-106.7,47.8-106.7,106.7v107.2H68.3
		c-14.1,0-25.6-11.5-25.6-25.6l0,0V241.5L256,49.5l213.3,192V444.3z"/>
</g>
</svg>
