<?xml version="1.0" encoding="utf-8"?>
<!-- Generator: Adobe Illustrator 28.3.0, SVG Export Plug-In . SVG Version: 6.00 Build 0)  -->
<svg version="1.1" id="Capa_2_00000155114572490808779050000015546114571532907914_"
	 xmlns="http://www.w3.org/2000/svg" xmlns:xlink="http://www.w3.org/1999/xlink" x="0px" y="0px" viewBox="0 0 145 116"
	 style="enable-background:new 0 0 145 116;" xml:space="preserve">
<style type="text/css">
	.st0{fill:#FFFFFF;}
</style>
<g id="Representación">
	<g id="Logo">
		<g id="logo">
			<path id="ghost" class="st0" d="M120.7,57.8c-0.7-24.7-22-44.5-48.2-44.5S25,33.1,24.3,57.8c0,0.4,0,0.9,0,1.3v34
				c0,0.7,0,1.3,0.1,2c1.1,11.7,11.4,20.9,24,20.9s16.3-6.9,24.1-6.9S84,116,96.6,116s23-9.2,24-20.9c0.1-0.7,0.1-1.3,0.1-2v-34
				C120.7,58.7,120.7,58.2,120.7,57.8L120.7,57.8L120.7,57.8z M53.2,74.9c-5.3,0-9.6-4.6-9.6-10.3s4.3-10.3,9.6-10.3
				s9.6,4.6,9.6,10.3S58.5,74.9,53.2,74.9z M91.8,74.9c-5.3,0-9.6-4.6-9.6-10.3s4.3-10.3,9.6-10.3s9.6,4.6,9.6,10.3
				S97.1,74.9,91.8,74.9z"/>
			<path id="_1" class="st0" d="M22.4,39c-2.4,5.6-3.8,11.6-4,17.9c0,0.5,0,1,0,1.5v31.3C7.9,87.3,0,77,0,64.7
				C0,50.8,9.9,39.5,22.4,39z"/>
			<path id="_2" class="st0" d="M122.6,39c2.4,5.6,3.8,11.6,4,17.9c0,0.5,0,1,0,1.5v31.3C137.1,87.3,145,77,145,64.7
				C145,50.8,135,39.5,122.6,39z"/>
			<path id="linea" class="st0" d="M126.6,30.8c0,0.7-0.2,1.3-0.4,1.9c-0.1,0.2-0.2,0.4-0.3,0.6c-0.7,1-1.8,1.6-3.1,1.6
				s-2.3-0.6-3-1.6c-0.1-0.2-0.2-0.4-0.4-0.6C110.4,18.1,92.8,8.2,72.5,8.2s-37.9,9.9-46.8,24.5c-0.1,0.2-0.2,0.4-0.4,0.6
				c-0.7,1-1.8,1.6-3.1,1.6c-2.1,0-3.9-1.8-3.9-4.1c0-0.6,0.1-1.2,0.4-1.8c0,0,0,0,0,0c0-0.1,0.1-0.2,0.1-0.3c0,0,0,0,0,0
				C27.6,11.9,48.3,0,72.5,0s45,11.9,53.6,28.8c0,0,0,0,0,0.1C126.4,29.5,126.6,30.1,126.6,30.8L126.6,30.8z"/>
		</g>
	</g>
</g>
</svg>
