<?xml version="1.0" encoding="utf-8"?>
<!-- Generator: Adobe Illustrator 28.3.0, SVG Export Plug-In . SVG Version: 6.00 Build 0)  -->
<svg version="1.1" id="Capa_2_00000041262517012314261030000010535408178976878469_"
	 xmlns="http://www.w3.org/2000/svg" xmlns:xlink="http://www.w3.org/1999/xlink" x="0px" y="0px" viewBox="0 0 498.7 116"
	 style="enable-background:new 0 0 498.7 116;" xml:space="preserve">
<style type="text/css">
	.st0{fill:#FFFFFF;}
</style>
<g id="Representación">
	<g id="Logo">
		<g id="logo">
			<path id="ghost" class="st0" d="M120.7,57.8c-0.7-24.7-22-44.5-48.2-44.5S25,33.1,24.3,57.8c0,0.4,0,0.9,0,1.3v34
				c0,0.7,0,1.3,0.1,2c1.1,11.7,11.4,20.9,24,20.9s16.3-6.9,24.1-6.9S84,116,96.6,116s23-9.2,24-20.9c0.1-0.7,0.1-1.3,0.1-2v-34
				C120.7,58.7,120.7,58.2,120.7,57.8L120.7,57.8L120.7,57.8z M53.2,74.9c-5.3,0-9.6-4.6-9.6-10.3s4.3-10.3,9.6-10.3
				s9.6,4.6,9.6,10.3S58.5,74.9,53.2,74.9z M91.8,74.9c-5.3,0-9.6-4.6-9.6-10.3s4.3-10.3,9.6-10.3s9.6,4.6,9.6,10.3
				S97.1,74.9,91.8,74.9z"/>
			<path id="_1" class="st0" d="M22.4,39c-2.4,5.6-3.8,11.6-4,17.9c0,0.5,0,1,0,1.5v31.3C7.9,87.3,0,77,0,64.7
				C0,50.8,9.9,39.5,22.4,39z"/>
			<path id="_2" class="st0" d="M122.6,39c2.4,5.6,3.8,11.6,4,17.9c0,0.5,0,1,0,1.5v31.3C137.1,87.3,145,77,145,64.7
				C145,50.8,135,39.5,122.6,39z"/>
			<path id="linea" class="st0" d="M126.6,30.8c0,0.7-0.2,1.3-0.4,1.9c-0.1,0.2-0.2,0.4-0.3,0.6c-0.7,1-1.8,1.6-3.1,1.6
				s-2.3-0.6-3-1.6c-0.1-0.2-0.2-0.4-0.4-0.6C110.4,18.1,92.8,8.2,72.5,8.2s-37.9,9.9-46.8,24.5c-0.1,0.2-0.2,0.4-0.4,0.6
				c-0.7,1-1.8,1.6-3.1,1.6c-2.1,0-3.9-1.8-3.9-4.1c0-0.6,0.1-1.2,0.4-1.8c0,0,0,0,0,0c0-0.1,0.1-0.2,0.1-0.3c0,0,0,0,0,0
				C27.6,11.9,48.3,0,72.5,0s45,11.9,53.6,28.8c0,0,0,0,0,0.1C126.4,29.5,126.6,30.1,126.6,30.8L126.6,30.8z"/>
		</g>
		<path class="st0" d="M155.4,72.7l6.8-8.1c4.3,3.5,9.2,5.3,14.3,5.3c3.3,0,5-1.1,5-3v-0.1c0-1.8-1.4-2.8-7.4-4.2
			c-9.4-2.1-16.6-4.8-16.6-13.8v-0.1c0-8.2,6.5-14.1,17-14.1c7.5,0,13.3,2,18.1,5.8l-6.1,8.6c-4-2.8-8.4-4.3-12.3-4.3
			c-2.9,0-4.4,1.3-4.4,2.8v0.1c0,2,1.5,2.9,7.6,4.3c10.1,2.2,16.4,5.5,16.4,13.7v0.1c0,9-7.1,14.3-17.8,14.3
			C168.2,80,160.8,77.6,155.4,72.7L155.4,72.7z"/>
		<path class="st0" d="M199.7,35.3h18.9c11.1,0,18.3,5.7,18.3,15.5v0.1c0,10.4-8,15.8-18.9,15.8h-6v12.6h-12.2V35.3z M217.6,57.1
			c4.3,0,7-2.3,7-5.7v-0.1c0-3.8-2.6-5.8-7-5.8h-5.7v11.6L217.6,57.1L217.6,57.1z"/>
		<path class="st0" d="M241.9,35.3h35.4v10.4H254v6.7h21.1v9.6H254v7h23.6v10.4h-35.7V35.3L241.9,35.3z"/>
		<path class="st0" d="M282,57.4v-0.1c0-12.8,9.9-22.9,23.2-22.9c9,0,14.8,3.8,18.7,9.2l-9.2,7.1c-2.5-3.1-5.4-5.2-9.6-5.2
			c-6.2,0-10.5,5.2-10.5,11.6v0.1c0,6.6,4.3,11.8,10.5,11.8c4.6,0,7.3-2.1,9.9-5.3l9.2,6.5c-4.1,5.7-9.7,9.9-19.5,9.9
			C292.1,80.1,282,70.5,282,57.4L282,57.4z"/>
		<path class="st0" d="M340.1,46h-13.2V35.3h38.6V46h-13.2v33.3h-12.2V46z"/>
		<path class="st0" d="M370.8,35.3h20.8c6.7,0,11.4,1.8,14.3,4.8c2.6,2.5,3.9,5.9,3.9,10.2v0.1c0,6.7-3.6,11.2-9,13.5l10.5,15.3
			h-14.1l-8.9-13.3H383v13.3h-12.2L370.8,35.3L370.8,35.3z M391.1,56.4c4.1,0,6.5-2,6.5-5.2v-0.1c0-3.5-2.5-5.2-6.6-5.2h-8v10.5
			L391.1,56.4L391.1,56.4z"/>
		<path class="st0" d="M430.5,35h11.8l18.7,44.3h-13.1l-3.2-7.8h-17l-3.1,7.8h-12.8L430.5,35L430.5,35z M441.1,61.9l-4.9-12.5
			l-5,12.5H441.1z"/>
		<path class="st0" d="M465.2,35.3h12.2v33.3h21.3v10.7h-33.5L465.2,35.3L465.2,35.3z"/>
	</g>
</g>
</svg>
