<?xml version="1.0" encoding="utf-8"?>
<!-- Generator: Adobe Illustrator 28.3.0, SVG Export Plug-In . SVG Version: 6.00 Build 0)  -->
<svg version="1.1" id="Capa_1" xmlns="http://www.w3.org/2000/svg" xmlns:xlink="http://www.w3.org/1999/xlink" x="0px" y="0px"
	 viewBox="0 0 512 512" style="enable-background:new 0 0 512 512;" xml:space="preserve">
<style type="text/css">
	.st0{fill:#1D1D1B;}
</style>
<path class="st0" d="M192,104.8c0-9.2-5.8-17.3-13.2-22.8C167.2,73.3,160,61.3,160,48c0-26.5,28.7-48,64-48s64,21.5,64,48
	c0,13.3-7.2,25.3-18.8,34c-7.4,5.5-13.2,13.6-13.2,22.8c0,12.8,10.4,23.2,23.2,23.2H336c26.5,0,48,21.5,48,48v56.8
	c0,12.8,10.4,23.2,23.2,23.2c9.2,0,17.3-5.8,22.8-13.2c8.7-11.6,20.7-18.8,34-18.8c26.5,0,48,28.7,48,64s-21.5,64-48,64
	c-13.3,0-25.3-7.2-34-18.8c-5.5-7.4-13.6-13.2-22.8-13.2c-12.8,0-23.2,10.4-23.2,23.2V464c0,26.5-21.5,48-48,48h-56.8
	c-12.8,0-23.2-10.4-23.2-23.2c0-9.2,5.8-17.3,13.2-22.8c11.6-8.7,18.8-20.7,18.8-34c0-26.5-28.7-48-64-48s-64,21.5-64,48
	c0,13.3,7.2,25.3,18.8,34c7.4,5.5,13.2,13.6,13.2,22.8c0,12.8-10.4,23.2-23.2,23.2H48c-26.5,0-48-21.5-48-48V343.2
	C0,330.4,10.4,320,23.2,320c9.2,0,17.3,5.8,22.8,13.2c8.7,11.6,20.7,18.8,34,18.8c26.5,0,48-28.7,48-64s-21.5-64-48-64
	c-13.3,0-25.3,7.2-34,18.8c-5.5,7.4-13.6,13.2-22.8,13.2C10.4,256,0,245.6,0,232.8V176c0-26.5,21.5-48,48-48h120.8
	C181.6,128,192,117.6,192,104.8z"/>
</svg>
